<?xml version="1.0" encoding="UTF-8"?>
<svg id="_圖層_2" data-name="圖層 2" xmlns="http://www.w3.org/2000/svg" viewBox="0 0 21.93 21.93">
  <defs>
    <style>
      .cls-1 {
        fill: #fff;
      }

      .cls-2 {
        fill: #757575;
      }
    </style>
  </defs>
  <g id="text">
    <g>
      <rect class="cls-1" x="4.91" y="1.07" width="16.12" height="20.87" rx="3.15" ry="3.15"/>
      <path class="cls-2" d="M4.03,0h13.88c2.21,0,4.03,1.81,4.03,4.03v13.88c0,2.21-1.81,4.03-4.03,4.03H4.03c-2.21,0-4.03-1.81-4.03-4.03V4.03C0,1.81,1.81,0,4.03,0Zm7.96,13.9h3.03l.13-2.9h-3.16v-2.14c0-.82,.16-1.28,1.22-1.28h1.84l.07-2.7s-.82-.13-2.01-.13c-2.9,0-4.18,1.81-4.18,3.75v2.5h-2.14v2.9h2.14v8.04h3.06V13.9Z"/>
    </g>
  </g>
</svg>