<?xml version="1.0" encoding="UTF-8"?>
<svg id="_圖層_2" data-name="圖層 2" xmlns="http://www.w3.org/2000/svg" viewBox="0 0 30.56 30.56">
  <defs>
    <style>
      .cls-1 {
        fill: #fff;
      }

      .cls-2 {
        fill: #757575;
      }
    </style>
  </defs>
  <g id="text">
    <g>
      <path class="cls-1" d="M19.92,29.85c-.05,.02-.11,.03-.17,.05,.06-.02,.11-.03,.17-.05Z"/>
      <path class="cls-1" d="M21.36,29.31c-.11,.05-.22,.09-.33,.13,.11-.04,.22-.08,.33-.13Z"/>
      <path class="cls-1" d="M12.2,30.25s-.02,0-.04,0h.04Z"/>
      <path class="cls-1" d="M10.81,29.9c-.06-.02-.11-.03-.17-.05,.06,.02,.11,.03,.17,.05Z"/>
      <path class="cls-1" d="M22.73,28.64c-.18,.1-.38,.19-.56,.29,.19-.09,.38-.18,.56-.29Z"/>
      <path class="cls-1" d="M9.53,29.44c-.11-.04-.22-.08-.33-.13,.11,.05,.22,.09,.33,.13Z"/>
      <path class="cls-1" d="M8.4,28.93c-.19-.1-.38-.18-.56-.29,.18,.1,.37,.19,.56,.29Z"/>
      <path class="cls-1" d="M18.36,30.25h.04s-.02,0-.04,0Z"/>
      <path class="cls-1" d="M21.23,19.71l.68-4.42h-4.24v-2.87c0-1.21,.59-2.39,2.49-2.39h1.93v-3.76s-1.75-.3-3.42-.3c-3.49,0-5.77,2.12-5.77,5.95v3.37h-3.88v4.42h3.88v10.65c.78,.12,1.57,.2,2.39,.2s1.61-.08,2.39-.2v-10.65h3.56Z"/>
      <path class="cls-2" d="M10.64,29.85c-.38-.12-.75-.26-1.12-.41,.37,.15,.74,.29,1.12,.41Z"/>
      <path class="cls-2" d="M12.17,30.25c-.46-.09-.91-.21-1.36-.35,.44,.14,.9,.25,1.36,.35Z"/>
      <path class="cls-2" d="M12.89,30.39v-.04c-.23-.04-.46-.06-.69-.1,.23,.05,.46,.1,.69,.14Z"/>
      <path class="cls-2" d="M7.83,28.64c-.08-.04-.16-.1-.24-.14,.08,.05,.16,.1,.24,.14Z"/>
      <path class="cls-2" d="M9.2,29.31c-.27-.12-.54-.25-.8-.38,.26,.13,.53,.27,.8,.38Z"/>
      <path class="cls-2" d="M19.75,29.9c-.44,.13-.9,.25-1.36,.35,.46-.1,.91-.21,1.36-.35Z"/>
      <path class="cls-2" d="M22.16,28.93c-.26,.13-.53,.27-.8,.38,.27-.12,.54-.25,.8-.38Z"/>
      <path class="cls-2" d="M21.04,29.44c-.37,.15-.74,.29-1.12,.41,.38-.12,.75-.26,1.12-.41Z"/>
      <path class="cls-2" d="M22.96,28.5c-.08,.05-.15,.1-.23,.14,.08-.04,.15-.09,.23-.14Z"/>
      <path class="cls-2" d="M17.67,30.39c.23-.04,.46-.09,.69-.14-.23,.05-.46,.07-.69,.1v.04Z"/>
      <path class="cls-2" d="M19.75,29.9c.06-.02,.11-.03,.17-.05,.38-.12,.75-.26,1.12-.41,.11-.04,.22-.08,.33-.13,.27-.12,.54-.25,.8-.38,.19-.1,.38-.18,.56-.29,.08-.04,.15-.1,.23-.14,4.54-2.65,7.6-7.57,7.6-13.21C30.56,6.85,23.72,0,15.28,0S0,6.85,0,15.29c0,5.64,3.06,10.56,7.6,13.21,.08,.05,.15,.1,.24,.14,.18,.1,.38,.19,.56,.29,.26,.13,.53,.27,.8,.38,.11,.05,.22,.09,.33,.13,.37,.15,.74,.29,1.12,.41,.05,.02,.11,.03,.17,.05,.44,.13,.9,.25,1.36,.35,.01,0,.02,0,.04,0,.23,.05,.46,.07,.69,.1v-10.65h-3.88v-4.42h3.88v-3.37c0-3.83,2.28-5.95,5.77-5.95,1.67,0,3.42,.3,3.42,.3v3.76h-1.93c-1.9,0-2.49,1.18-2.49,2.39v2.87h4.24l-.68,4.42h-3.56v10.65c.23-.04,.46-.06,.69-.1,.01,0,.02,0,.04,0,.46-.09,.91-.21,1.36-.35Z"/>
    </g>
  </g>
</svg>