<?xml version="1.0" encoding="UTF-8"?>
<svg id="_圖層_2" data-name="圖層 2" xmlns="http://www.w3.org/2000/svg" viewBox="0 0 30.7 30.7">
  <defs>
    <style>
      .cls-1 {
        fill: none;
        stroke: #fff;
        stroke-miterlimit: 333.33;
        stroke-width: 1.5px;
      }

      .cls-2 {
        fill: #757575;
      }
    </style>
  </defs>
  <g id="text">
    <circle class="cls-2" cx="15.35" cy="15.35" r="15.35"/>
    <g>
      <path class="cls-1" d="M11.09,13.07c.17-1.37,.98-2.58,2.18-3.25l3.77-2.16c2.08-1.19,4.73-.47,5.91,1.61,1.19,2.08,.47,4.73-1.61,5.91l-3.77,2.16c-1.79,1.02-4.04,.64-5.4-.9"/>
      <path class="cls-1" d="M18.89,14.66c-1.36-1.54-3.62-1.92-5.4-.9l-3.77,2.16c-2.08,1.19-2.8,3.84-1.61,5.92,1.19,2.08,3.83,2.8,5.91,1.61l3.77-2.16c1-.57,1.73-1.51,2.03-2.62,.06-.2,.09-.4,.11-.61"/>
    </g>
  </g>
</svg>