<?xml version="1.0" encoding="UTF-8"?>
<svg id="_圖層_2" data-name="圖層 2" xmlns="http://www.w3.org/2000/svg" viewBox="0 0 256.39 71.38">
  <defs>
    <style>
      .cls-1 {
        fill: #232323;
      }

      .cls-1, .cls-2 {
        fill-rule: evenodd;
      }

      .cls-2 {
        fill: #fff;
      }

      .cls-3 {
        fill: #c30d23;
      }
    </style>
  </defs>
  <g id="BG">
    <g>
      <g>
        <path class="cls-1" d="M178.2,32.75c-.02,1.24-.04,2.48-.1,3.7-.29,.84-1.47,1.38-1.86,2.34-.9,2.2-.51,7.17,.39,9.1,2.74,.55,5.02,1.62,7.7,.16,.89,1.07,3.58,.87,4.75,.32,.08,.44,0,.3,.28,.52h.89c.27-.28,.53-.57,.8-.84,.37,.26,.91,.69,1.57,.38,.81-.42,.84-1.31,1.49-1.83,1.86,.61,3.62-1.28,3.55-3.38-.51-.3-1.57-.99-1.39-1.67,.12-.15,.28-.4,.39-.57h.38c1.09,.92,1.51,4.64,3.77,4.16,.82-.2,1.25-.8,2.29-.91,.04,0,.13,.07,.19,.1v.69c-1.03,.78-1.99,2.2-2.48,3.43-.17,.5,0,1.24-.29,1.61-.67,.6-1.86,.6-2.66,1.06-.34,.36-.65,.76-.98,1.09-1.39-.4-2.72-.48-4.07-.69-.21,2.24-2.08,1.31-3.55,.99h-2.06c-2.82-.55-4.98-2.22-7.3,.18-1.02-.07-1.09-.73-1.78-1.17-2.35,.74-3.36-.48-4.84,1.31-.02-.1-.04-.17-.08-.21-1.28-1.46,0-3.84,.08-5.42,.05-.47-.43-.58-.3-1.3,.56-2.62,1.17-6.85,.79-9.93-.27-.32-4.58-1.83-5.03-1.91-.95,.62-3.37,1.71-3.45,3.06,.89,2.09-.27,4.79-.38,7-.03,.51,.52,.64,.28,1.29-.28,.78-1,1.23-1.56,1.79,.02,1.13-.02,2.11-.52,2.75-.49,.66-6.81,3.17-7.18,3.07-.18-.29-.35-.54-.5-.81-1.22,.48-6.29,.44-4.24-1.46,1.62,.9,2.81-.64,3.74-1.43,.5,.3,.3,.32,.8,0,.67-1.25,3.14-1.12,3.76-2.42v-1.2c.65-.94,1.98-1.6,2.46-2.77,.53-1.29,.12-2.06,.98-3.04-1.37-2.69-8.1,3.04-10.38,3.34-.15-1.57-2.61-2.12-2.27-3.92,.4-.66,6.74-2.19,7.89-2.59,.92-.27,5.8-2.5,6.04-3.05-.09-.39-.13-.8-.2-1.19,.38-.92,.79-1.84,1.17-2.77,.9-3.01-.38-6.15-1.38-8.18-.43,.05-.42,.13-.69-.1-.62-.76-1.23-2.33-.69-2.74,.07-.14,.14-.22,.21-.29,1.18,.96,2.18,.91,3.65,1.62-.03,.69,0,.94,.39,1.22,.71,.38,2.66-.28,3.19-.8-.5,2.35-3.49,7.13-.92,9.57,.42-.28,.34-.31,.92-.31,.23,.26,.5,.48,.78,.7,2.98-.78,5.31-2.96,8.97-3.27,.39,.44,.84,.52,1.39,.81v.09c-.28,.12-.37-.05-.49,.21,.06,.55,.11,1.11,.19,1.66-.25,1.36-1.2,2.05-1.86,2.95-.22-.02-.38-.04-.61-.11"/>
        <path class="cls-1" d="M37.88,30.66c1.13-.05,5.26,1.95,5.56,2.56,.7,1.53-1.18,3.56-2.18,3.84-2.33,.58-3.49-1.29-5.24-1.75-3.18-.94-5.32,1.02-8.08,1.09-.87,.02-1.04-.79-1.68-.95-.1,0-3.66-.36-3.66-.36-.26,.29-.52,.52-.79,.78h-.19c-.2-.42-.2-.6-.7-.78-.14,.33-.27,.68-.39,.97-3.07-.68-7.67,.68-9.68,1.96-.63,.46-.84,1.38-1.38,1.79-.65,.46-3.87,1.06-4.56,.91-.66-2.05-1.62-4.02-3.13-5.28-.73-.52-1.4,.15-1.78-.85,1.17-.04,2.31-.05,3.46-.08,1.16,.27,1.62,1.25,3.46,.87,2.22-.45,3.72-2.04,5.82-2.57,3.02-.76,5.29,1.75,6.99-.9,.46,.21,.92,.43,1.4,.61,.48-.25,.37-.43,.68-.78,.44,.17,.86,.31,1.28,.49,1.18-.18,1.93-1.34,3.76-.99,2.46,.46,6.98,1.36,10.25,.5,.1-.7,.33-.76,.78-1.07"/>
        <path class="cls-1" d="M232.89,21.03c1.02-1.62,2.48-2.09,3.77-3.39,.6,.99-.14,2.52-.4,3.29-.93,.57-1.96,.39-3.27,.29-.02-.07-.07-.14-.1-.19m5.64,8.48c1.64-1.01,.37-3.24,1.37-4.95,.68-1.14,1.88-1.95,2.47-3.34,1.44-3.28,2.16-8.45,2.67-12.21,.25-1.82,.51-4.53-.19-5.96-1.26-2.53-4.18-3.16-8.18-3.03-2.39,1.06-4.74,1.06-6.22,2.92,2.35,.52,5.48,.76,7.47-.18,1.03,.83,1.86,3.42,1.01,5.42-1.22,2.54-4.18-.19-6.5,.33-.8,.29-1.65,.63-2.47,.96-.24,.27-.46,.51-.7,.78,1.2,.57,2.3,.49,3.06,1.38,.31,1.74-.68,3.74-1.97,4.23-.07,.1-.14,.16-.21,.21-2.16-1.86-2.16-6.05-4.23-8.08-.08-.08-.14-.12-.22-.16-.71,1.73-2.23,6-1.67,8.76,.61,1.84,1.24,3.66,1.88,5.52,.52,3.14,.14,7.77,3.94,7.89,.91-.88,1.69-3.25,1.77-4.82,.05-.05,.14-.05,.21-.14,.97,2.3,3.07,6.71,6.7,4.48"/>
        <path class="cls-1" d="M241.67,25.73c.39,.23,.74,.41,1.1,.63-.32,3.3-3.5,4.17-4.04,7.28,1.36-.66,2.75-1.31,4.14-1.97,2.67-1.1,5.39-1.71,7.5-3.25,.74-2.75-2.27-5.17-5.04-5.04-1.18,.73-2.68,.99-3.67,1.86v.48Z"/>
        <path class="cls-1" d="M227.09,53.68c1.13-6.95-.1-14.36,2.25-20.63-.4-.46-1.04-.51-1.77-.69-.68,.13-1.09-.56-1.27-1.18-.33-.11-.7-.13-1.01-.19-.61,.51-2,.69-2.46,1.37-1.37,1.95,.09,4.82,.49,6.31,.13,1.43,.27,2.9,.42,4.35-2.23,.59-2.73,2.12-5.55,2.08-.3-.44-.97-2.96-.89-3.35,.08-.5,.33-1.17,.11-1.69-.19-.3-.53-.25-.71-.48-.19-.85-.37-1.72-.56-2.56-.5-.88-1.43-1.17-1.79-2.3h-.11c-.16,.21-.33,.4-.49,.59,.26,.78,.51,1.53,.78,2.29-.16,.55-.31,1.12-.47,1.66,.16,.84,.31,1.72,.47,2.57,.26,1.57-.32,3.11,.13,4.82-.82,1.06-1.97,1.06-1.99,3,.42,.17,.92-.04,1.39,.07,.42,.43,.85,.88,1.27,1.28,.92-.11,1.24-.56,1.98-.79,2.28-.61,4.62-1.26,6.62-2.06h.09c.31,1.33,.31,3.21,0,4.5-3.69,1.59-7.36,3.14-11.08,4.67-1.06,.45-3.22,1.48-3.14,2.78,.05,.08,.09,.16,.13,.3,.7,1.08,1.66,2.63,2.16,3.83,.3,.09,.59,.15,.85,.21,1.27-2.85,3.98-3.33,6.37-5.04,1.27-.93,2.28-2.14,3.85-2.88,1.31,.81,1.54,8.13,1.15,10.46-1.96,1.08-3.25-.03-5.62-.09-.08,.04-.13,.04-.19,.09-.05,.08-.08,.21-.11,.33,1.37,1.81,5.62,3.25,8.2,1.35,.56-2.63-.21-5.04,.28-7.7,.26-1.28,.55-2.82,.5-4.64,.52-.35,.88-.52,1.87-.5,.43-.71,.98-1.35,1.09-2.37-.81-.17-2.07,.12-3.25,.21"/>
        <path class="cls-1" d="M256.38,33.38c-.82-.94-2.17-1.26-3.94-1.21-.81,.29-1.64,.58-2.47,.88-4.06,2.52-6.55,6.96-11.44,9.01-.54-1.59-1.02-3.71-1.19-5.65h-.2c-.43,1.13-.84,2.23-1.27,3.35-.46,2.02-.87,4-1.3,6.03-.51,1.35-2.06,2.4-2.36,3.63-.34,1.4,2.05,6.65,2.67,7.11,.35,.04,.72,.07,1.09,.11,1.46-1.52,.97-4.45,1.66-6.8,.81-2.7,5.79-7.45,8.59-8.08,2.02,1.93,1.23,4.66,1.77,8.27,.51,3.27,1.79,14.84,.31,17.57-.49,.39-.91,.79-1.38,1.18,.26,1.81,2.16,3.18,4.04,2.36,1.53-2.56,.59-7.16,.09-10.47-.05-2.91-.13-5.86-.17-8.78v-7.79c-.36-1.11-2.51-2.22-3.39-2.93-.02-.11-.04-.19-.08-.3,2.77-2.88,9.14-2.63,8.98-7.48"/>
      </g>
      <g>
        <rect class="cls-3" x="60.83" y="4.5" width="75.38" height="61.43"/>
        <path class="cls-2" d="M122.4,23.95c-.66,.14-1.6-.29-1.88-.85-.19-.21-.12-.14-.2-.48,.13-.11,.25-.21,.4-.29,.95,.34,1.21,.73,1.68,1.53v.1Zm-8.23,3.12c.04-2.26,3.82-4.43,5.22-2.04-1,1.23-2.91,2.11-5.22,2.04m15.08-1.35c2.35-3.27-7.28-5.99-10.62-5.4-3.76,.72-5.74,3.55-7.27,6.36-.42,.8-.82,1.56-1.26,2.34-.73,.51-2.59,.13-3.72,.13-.19-.27-.35-.55-.54-.79-.31-1.06,2.3-4.59,2.91-5.48,2.23-3.19,4.55-6.46,7.72-8.78,2.02-1.36,4.08-2.77,6.11-4.12,2.45-3.05-1.99-5-5.18-4.96-2.66,2.82-7.62,5.21-13.43,4.4-.22,.48-.68,1.12-.43,1.84,.43,1.05,4.11,3.62,6.06,3.29,1.52-.35,3.06-.78,4.57-1.14,.04,.02,.09,.04,.11,.08,.03,.17,.06,.34,.1,.5-1.44,1.8-2.5,4.03-3.94,5.84-1.82,2.35-4.3,4.32-5.92,6.85-.83,1.28-1.66,3.84-.84,5.68,.6,1.34,3.56,1.56,4.68,2.42-.82,3.7-6.33,12.76-1.35,15.06,.64,0,.89-.03,1.25-.27,1.28-.87,.89-4.13,1.24-5.88,.64-3.43,.97-11.36,3.65-12.62,.74-.12,1.53-.31,2.29-.46,1.13-.43,2.3-.84,3.84-.48,.23,1.14,.68,2.71,.41,4.28-.1,1.15-.18,2.28-.29,3.41,.16,4.97,.33,9.89,.51,14.86,0,2.36,.39,7.94-.63,9.27-.92,1.22-3.91,.95-5.83,1.17v.14c.5,.84,2.69,2.9,4.28,2.22,3.5,2.93,6.01,.87,6.84-2.9,.65-2.98-1.2-7.34-.62-9.96,.42-1.99-.05-6.95-.52-9.32v-15.31c1.46-1.04,4-1.61,5.83-2.26"/>
        <path class="cls-2" d="M72.38,48.95c5.04-10.72,10.45-21.88,16.83-31.42,2.09-3.17,6.18-8.73,10.6-9.4,.04-.3,.08-.62,.11-.97-.69-.48-1.52-1.12-2.59-1.19-1.24,.86-3.12,3.17-4.77,2.24-2.14,1.45-8.06,3.92-11.46,2.46h-.08c0,.77,.28,1.1,.71,1.47,1.52,1.43,8.75-.34,9.36-1.95,.32,.04,1.07,.41,1.87,.48v.1c-2.26,2.8-4.54,5.59-6.75,8.4-5.12,6.91-9.5,14.69-13.23,22.73-1.74,3.8-4.27,6.4-5.11,11.26-.29,1.79,.43,3.12,.62,4.48,.46-.03,.9-.04,1.35-.08,1.01-.94-.06-3.23,.44-4.73,.67-1.29,1.38-2.56,2.09-3.89"/>
        <path class="cls-2" d="M97.83,30.22c-.79-.25-1.91-.33-3.1-.31-3.57,1.49-9.42,3.54-10.29,7.23-.15,.05-.27,.07-.43,.11-1.57-.71-1.79-2.83-2.28-4.5-.07-.06-.14-.06-.21-.08-.96,2.22-1.21,5.13-.51,7.6,.8,.49,.91,.31,1.86,.12,.87,.86,1.13,2.53,2.68,2.82h.14c.48-.83,.41-2.31,.8-3.24,.91-1.96,3.61-4.57,6.06-5.09,.17,.16,.33,.28,.52,.42,.76,2.71-.35,2.29-1.05,3.8-1.02,2.19-1.01,2.33-4.38,2.23-.48,.49-.84,.8-1.04,1.58,.32,.73,.62,1.5,.94,2.23,3.26,1.22,2.83-.2,5.41-.83,1.73-.51,2.83,.58,3.73,.83,2.32,.74,4.39-.97,4.35-2.61-.9-.84-2.9-.97-3.4-2.15-.26-2.09,7.89-7.89,.19-10.17"/>
      </g>
    </g>
  </g>
</svg>