<?xml version="1.0" encoding="UTF-8"?>
<svg id="_圖層_2" data-name="圖層 2" xmlns="http://www.w3.org/2000/svg" viewBox="0 0 29.23 20.59">
  <defs>
    <style>
      .cls-1 {
        fill: #fff;
      }

      .cls-2 {
        fill: #757575;
        fill-rule: evenodd;
      }
    </style>
  </defs>
  <g id="_圖層_1-2" data-name="圖層 1">
    <g id="Icons">
      <rect class="cls-1" x="8.16" y="4.19" width="12.88" height="11.54"/>
      <g id="Color-">
        <path id="Youtube" class="cls-2" d="M11.6,14.1V5.87s7.9,4.13,7.9,4.13l-7.9,4.1ZM28.94,4.44s-.29-2.02-1.16-2.91c-1.11-1.17-2.36-1.17-2.93-1.24-4.09-.3-10.23-.3-10.23-.3h-.01S8.47,0,4.38,.3c-.57,.07-1.82,.07-2.93,1.24C.58,2.42,.29,4.44,.29,4.44c0,0-.29,2.37-.29,4.74v2.22c0,2.37,.29,4.74,.29,4.74,0,0,.29,2.02,1.16,2.91,1.11,1.17,2.57,1.13,3.22,1.25,2.34,.23,9.94,.29,9.94,.29,0,0,6.14,0,10.23-.31,.57-.07,1.82-.07,2.93-1.24,.88-.89,1.16-2.91,1.16-2.91,0,0,.29-2.37,.29-4.74v-2.22c0-2.37-.29-4.74-.29-4.74h0Z"/>
      </g>
    </g>
  </g>
</svg>