<?xml version="1.0" encoding="UTF-8"?>
<svg id="_圖層_2" data-name="圖層 2" xmlns="http://www.w3.org/2000/svg" viewBox="0 0 26.85 26.85">
  <defs>
    <style>
      .cls-1 {
        fill: #757575;
      }

      .cls-1, .cls-2 {
        stroke-width: 0px;
      }

      .cls-2 {
        fill: #fff;
      }
    </style>
  </defs>
  <g id="text">
    <g>
      <path class="cls-2" d="M18.77,25.75c-.1.04-.2.08-.3.12.1-.04.2-.08.3-.12Z"/>
      <path class="cls-2" d="M7.39,25.42c-.17-.09-.35-.17-.51-.26.17.09.34.17.51.26Z"/>
      <path class="cls-2" d="M9.51,26.27c-.05-.02-.11-.03-.16-.05.05.02.11.03.16.05Z"/>
      <path class="cls-2" d="M8.38,25.87c-.1-.04-.2-.08-.3-.12.1.04.2.08.3.12Z"/>
      <path class="cls-2" d="M10.73,26.58s-.03,0-.05,0c.02,0,.03,0,.05,0Z"/>
      <path class="cls-2" d="M17.5,26.22c-.05.02-.11.03-.16.05.05-.02.11-.03.16-.05Z"/>
      <path class="cls-2" d="M19.97,25.16c-.17.09-.34.17-.51.26.17-.09.34-.17.51-.26Z"/>
      <path class="cls-2" d="M16.12,26.58s.03,0,.04,0c-.02,0-.03,0-.04,0Z"/>
      <path class="cls-2" d="M18.65,17.32l.6-3.88h-3.72v-2.52c0-1.06.52-2.1,2.19-2.1h1.69v-3.31s-1.54-.26-3-.26c-3.07,0-5.07,1.86-5.07,5.23v2.96h-3.41v3.88h3.41v9.35c.69.11,1.38.18,2.1.18s1.41-.07,2.1-.18v-9.35h3.13Z"/>
      <path class="cls-1" d="M15.52,26.7c.2-.03.4-.08.6-.12-.2.04-.4.06-.6.09v.03Z"/>
      <path class="cls-1" d="M9.34,26.22c-.33-.1-.65-.22-.97-.35.32.13.64.25.97.35Z"/>
      <path class="cls-1" d="M18.47,25.87c-.32.13-.64.25-.97.35.33-.1.65-.22.97-.35Z"/>
      <path class="cls-1" d="M11.33,26.7v-.03c-.2-.03-.4-.05-.6-.09.2.04.4.09.6.12Z"/>
      <path class="cls-1" d="M10.68,26.57c-.4-.08-.79-.18-1.17-.3.38.12.78.22,1.17.3Z"/>
      <path class="cls-1" d="M20.15,25.05c-.06.04-.12.08-.18.11.06-.04.12-.07.18-.11Z"/>
      <path class="cls-1" d="M8.08,25.75c-.23-.1-.46-.21-.68-.33.23.11.45.23.68.33Z"/>
      <path class="cls-1" d="M17.34,26.27c-.39.12-.78.22-1.18.3.4-.08.79-.18,1.18-.3Z"/>
      <path class="cls-1" d="M19.46,25.42c-.23.11-.45.23-.69.33.23-.1.46-.21.69-.33Z"/>
      <path class="cls-1" d="M6.88,25.16c-.06-.03-.12-.07-.18-.11.06.03.12.07.18.11Z"/>
      <path class="cls-1" d="M17.34,26.27c.05-.02.11-.03.16-.05.33-.1.65-.22.97-.35.1-.04.2-.08.3-.12.23-.1.46-.22.69-.33.17-.09.34-.17.51-.26.06-.03.12-.08.18-.11,4-2.33,6.69-6.65,6.69-11.62C26.85,6.01,20.84,0,13.42,0S0,6.01,0,13.43c0,4.96,2.7,9.29,6.7,11.62.06.03.12.07.18.11.17.09.34.17.51.26.23.11.45.23.68.33.1.04.2.08.3.12.32.13.64.25.97.35.05.02.11.03.16.05.38.12.78.22,1.17.3.02,0,.03,0,.05,0,.2.04.4.06.6.09v-9.35h-3.41v-3.88h3.41v-2.96c0-3.37,2-5.23,5.07-5.23,1.47,0,3,.26,3,.26v3.31h-1.69c-1.67,0-2.19,1.04-2.19,2.1v2.52h3.72l-.6,3.88h-3.13v9.35c.2-.03.4-.05.6-.09.01,0,.03,0,.04,0,.4-.08.79-.18,1.18-.3Z"/>
    </g>
  </g>
</svg>