<?xml version="1.0" encoding="UTF-8"?>
<svg id="_圖層_2" data-name="圖層 2" xmlns="http://www.w3.org/2000/svg" viewBox="0 0 24.9 24.77">
  <defs>
    <style>
      .cls-1 {
        fill: #fff;
      }

      .cls-1, .cls-2 {
        fill-rule: evenodd;
        stroke-width: 0px;
      }

      .cls-2 {
        fill: #757575;
      }
    </style>
  </defs>
  <g id="text">
    <g>
      <path class="cls-2" d="M5.1,0h14.71c2.8,0,5.1,2.28,5.1,5.07v14.63c0,2.79-2.29,5.07-5.1,5.07H5.1c-2.8,0-5.1-2.28-5.1-5.07V5.07C0,2.28,2.29,0,5.1,0Z"/>
      <path class="cls-1" d="M12.43,4.1c5.05,0,9.14,3.26,9.14,7.28,0,1.4-.5,2.71-1.36,3.83-.04.06-.1.13-.17.21h0c-.3.36-.63.69-.99.99-2.53,2.32-6.69,5.09-7.23,4.66-.48-.37.79-2.18-.67-2.49-.1-.01-.2-.02-.3-.04h0c-4.28-.6-7.53-3.58-7.53-7.16,0-4.02,4.09-7.28,9.14-7.28h0Z"/>
      <path class="cls-2" d="M7.13,13.7h1.84c.26,0,.48-.21.48-.47v-.04c0-.26-.21-.47-.48-.47h-1.33v-3c0-.26-.21-.47-.48-.47h-.04c-.26,0-.48.21-.48.47v3.51c0,.26.21.47.48.47ZM18.55,11.5v-.04c0-.26-.21-.47-.48-.47h-1.33v-.75h1.33c.26,0,.48-.21.48-.47v-.04c0-.26-.21-.47-.48-.47h-1.84c-.26,0-.48.21-.48.47v3.51c0,.26.21.47.48.47h1.84c.26,0,.48-.21.48-.47v-.04c0-.26-.21-.47-.48-.47h-1.33v-.75h1.33c.26,0,.48-.21.48-.47h0ZM15,13.56h0c.09-.09.14-.21.14-.33v-3.51c0-.26-.21-.47-.48-.47h-.04c-.26,0-.48.21-.48.47v2.06l-1.72-2.3c-.08-.14-.24-.24-.41-.24h-.04c-.26,0-.48.21-.48.47v3.51c0,.26.21.47.48.47h.04c.26,0,.48-.21.48-.47v-2.1l1.73,2.36s.02.03.03.05h0c.05.06.11.11.19.14.06.02.12.04.18.04h.04c.08,0,.15-.02.22-.06.05-.02.09-.05.12-.09h0ZM10.31,13.7h.04c.26,0,.48-.21.48-.47v-3.51c0-.26-.21-.47-.48-.47h-.04c-.26,0-.48.21-.48.47v3.51c0,.26.21.47.48.47h0Z"/>
    </g>
  </g>
</svg>