<?xml version="1.0" encoding="UTF-8"?>
<svg id="_圖層_2" data-name="圖層 2" xmlns="http://www.w3.org/2000/svg" viewBox="0 0 22.04 21.92">
  <defs>
    <style>
      .cls-1 {
        fill: #fff;
      }

      .cls-1, .cls-2 {
        fill-rule: evenodd;
      }

      .cls-2 {
        fill: #757575;
      }
    </style>
  </defs>
  <g id="text">
    <g>
      <path class="cls-2" d="M4.51,0h13.02c2.48,0,4.51,2.02,4.51,4.49v12.95c0,2.47-2.03,4.49-4.51,4.49H4.51c-2.48,0-4.51-2.02-4.51-4.49V4.49C0,2.02,2.03,0,4.51,0Z"/>
      <path class="cls-1" d="M11,3.63c4.47,0,8.09,2.88,8.09,6.44,0,1.24-.44,2.4-1.21,3.39-.04,.06-.09,.12-.15,.19h0c-.26,.32-.56,.61-.88,.88-2.24,2.06-5.92,4.5-6.4,4.13-.42-.33,.7-1.93-.59-2.2-.09-.01-.18-.02-.27-.03h0c-3.79-.54-6.66-3.17-6.66-6.34,0-3.56,3.62-6.44,8.09-6.44h0Z"/>
      <path class="cls-2" d="M6.31,12.12h1.63c.23,0,.42-.19,.42-.42v-.03c0-.23-.19-.42-.42-.42h-1.17v-2.66c0-.23-.19-.42-.42-.42h-.04c-.23,0-.42,.19-.42,.42v3.11c0,.23,.19,.42,.42,.42Zm10.11-1.95v-.03c0-.23-.19-.42-.42-.42h-1.17v-.66h1.17c.23,0,.42-.19,.42-.42v-.03c0-.23-.19-.42-.42-.42h-1.63c-.23,0-.42,.19-.42,.42v3.11c0,.23,.19,.42,.42,.42h1.63c.23,0,.42-.19,.42-.42v-.03c0-.23-.19-.42-.42-.42h-1.17v-.66h1.17c.23,0,.42-.19,.42-.42h0Zm-3.14,1.82h0c.08-.08,.12-.18,.12-.29v-3.11c0-.23-.19-.42-.42-.42h-.04c-.23,0-.42,.19-.42,.42v1.83l-1.52-2.03c-.07-.13-.21-.21-.37-.21h-.04c-.23,0-.42,.19-.42,.42v3.11c0,.23,.19,.42,.42,.42h.04c.23,0,.42-.19,.42-.42v-1.86l1.54,2.09s.02,.03,.03,.04h0c.04,.06,.1,.1,.16,.12,.05,.02,.1,.03,.16,.03h.04c.07,0,.14-.02,.2-.05,.04-.02,.08-.05,.1-.08h0Zm-4.15,.13h.04c.23,0,.42-.19,.42-.42v-3.11c0-.23-.19-.42-.42-.42h-.04c-.23,0-.42,.19-.42,.42v3.11c0,.23,.19,.42,.42,.42h0Z"/>
    </g>
  </g>
</svg>