<?xml version="1.0" encoding="UTF-8"?>
<svg id="_圖層_2" data-name="圖層 2" xmlns="http://www.w3.org/2000/svg" viewBox="0 0 152.8 42.54">
  <defs>
    <style>
      .cls-1 {
        fill: #fff;
        fill-rule: evenodd;
      }

      .cls-2 {
        fill: #c30d23;
      }
    </style>
  </defs>
  <g id="BG">
    <g>
      <path class="cls-1" d="M106.2,19.52c-.01,.74-.02,1.48-.06,2.21-.17,.5-.88,.82-1.11,1.4-.54,1.31-.3,4.27,.23,5.42,1.63,.33,2.99,.97,4.59,.1,.53,.64,2.14,.52,2.83,.19,.05,.26,0,.18,.17,.31h.53c.16-.17,.32-.34,.47-.5,.22,.16,.54,.41,.93,.23,.48-.25,.5-.78,.89-1.09,1.11,.36,2.15-.76,2.12-2.02-.3-.18-.93-.59-.83-.99,.07-.09,.17-.24,.23-.34h.23c.65,.55,.9,2.76,2.24,2.48,.49-.12,.75-.48,1.36-.55,.02,0,.08,.04,.11,.06v.41c-.62,.46-1.18,1.31-1.48,2.04-.1,.3,0,.74-.17,.96-.4,.36-1.11,.36-1.59,.63-.2,.21-.39,.45-.58,.65-.83-.24-1.62-.29-2.43-.41-.13,1.34-1.24,.78-2.12,.59h-1.23c-1.68-.33-2.97-1.32-4.35,.11-.61-.04-.65-.44-1.06-.7-1.4,.44-2-.29-2.88,.78,0-.06-.02-.1-.05-.13-.77-.87,0-2.29,.05-3.23,.03-.28-.26-.35-.18-.77,.33-1.56,.7-4.08,.47-5.92-.16-.19-2.73-1.09-3-1.14-.57,.37-2.01,1.02-2.05,1.82,.53,1.25-.16,2.86-.23,4.17-.02,.3,.31,.38,.17,.77-.17,.46-.6,.73-.93,1.07,.01,.67-.01,1.26-.31,1.64-.29,.39-4.06,1.89-4.28,1.83-.11-.17-.21-.32-.3-.48-.73,.29-3.75,.26-2.53-.87,.97,.54,1.68-.38,2.23-.85,.3,.18,.18,.19,.48,0,.4-.75,1.87-.67,2.24-1.44v-.71c.39-.56,1.18-.95,1.46-1.65,.32-.77,.07-1.23,.58-1.81-.81-1.6-4.83,1.81-6.18,1.99-.09-.94-1.56-1.26-1.35-2.34,.24-.39,4.02-1.3,4.7-1.55,.55-.16,3.46-1.49,3.6-1.82-.05-.23-.08-.47-.12-.71,.23-.55,.47-1.1,.7-1.65,.54-1.8-.23-3.67-.82-4.87-.26,.03-.25,.08-.41-.06-.37-.45-.73-1.39-.41-1.63,.04-.08,.08-.13,.12-.17,.7,.57,1.3,.54,2.17,.97-.02,.41,0,.56,.24,.73,.42,.23,1.58-.17,1.9-.48-.3,1.4-2.08,4.25-.55,5.71,.25-.17,.2-.18,.55-.18,.14,.16,.3,.29,.46,.42,1.78-.47,3.16-1.76,5.34-1.95,.23,.26,.5,.31,.83,.48v.06c-.17,.07-.22-.03-.29,.12,.03,.33,.07,.66,.11,.99-.15,.81-.72,1.22-1.11,1.76-.13,0-.23-.02-.36-.07"/>
      <path class="cls-1" d="M22.58,18.27c.67-.03,3.13,1.16,3.31,1.52,.42,.91-.7,2.12-1.3,2.29-1.39,.35-2.08-.77-3.13-1.04-1.89-.56-3.17,.61-4.82,.65-.52,0-.62-.47-1-.57-.06,0-2.18-.21-2.18-.21-.15,.17-.31,.31-.47,.46h-.11c-.12-.25-.12-.36-.42-.46-.08,.2-.16,.4-.23,.58-1.83-.4-4.57,.41-5.77,1.17-.38,.27-.5,.82-.82,1.07-.39,.27-2.31,.63-2.72,.54-.39-1.22-.96-2.4-1.87-3.14-.44-.31-.83,.09-1.06-.51,.7-.02,1.37-.03,2.06-.05,.69,.16,.97,.75,2.06,.52,1.32-.27,2.22-1.22,3.47-1.53,1.8-.45,3.15,1.04,4.17-.54,.27,.13,.55,.25,.84,.36,.28-.15,.22-.25,.4-.47,.26,.1,.51,.19,.77,.29,.7-.11,1.15-.8,2.24-.59,1.47,.27,4.16,.81,6.11,.3,.06-.42,.2-.45,.47-.64"/>
      <path class="cls-1" d="M138.8,12.54c.61-.97,1.48-1.24,2.25-2.02,.36,.59-.09,1.5-.24,1.96-.55,.34-1.17,.23-1.95,.17-.01-.04-.04-.08-.06-.11m3.36,5.05c.98-.6,.22-1.93,.81-2.95,.41-.68,1.12-1.16,1.47-1.99,.86-1.95,1.29-5.04,1.59-7.28,.15-1.08,.3-2.7-.11-3.55-.75-1.51-2.49-1.89-4.88-1.81-1.43,.63-2.83,.63-3.71,1.74,1.4,.31,3.27,.45,4.45-.11,.62,.49,1.11,2.04,.6,3.23-.73,1.51-2.49-.11-3.88,.2-.48,.17-.98,.38-1.47,.57-.14,.16-.28,.3-.42,.47,.72,.34,1.37,.29,1.82,.82,.19,1.03-.41,2.23-1.17,2.52-.04,.06-.08,.1-.12,.13-1.29-1.11-1.29-3.61-2.52-4.82-.05-.05-.09-.07-.13-.1-.42,1.03-1.33,3.58-.99,5.22,.36,1.1,.74,2.18,1.12,3.29,.31,1.87,.09,4.63,2.35,4.7,.54-.52,1.01-1.94,1.06-2.87,.03-.03,.08-.03,.13-.09,.58,1.37,1.83,4,3.99,2.67"/>
      <path class="cls-1" d="M144.03,15.33c.23,.14,.44,.24,.66,.38-.19,1.97-2.08,2.49-2.41,4.34,.81-.39,1.64-.78,2.47-1.17,1.59-.66,3.21-1.02,4.47-1.94,.44-1.64-1.35-3.08-3-3-.7,.43-1.6,.59-2.19,1.11v.29Z"/>
      <path class="cls-1" d="M135.34,31.99c.68-4.14-.06-8.56,1.34-12.29-.24-.27-.62-.31-1.05-.41-.4,.08-.65-.34-.76-.7-.2-.07-.42-.08-.6-.11-.36,.3-1.19,.41-1.47,.81-.81,1.16,.06,2.87,.29,3.76,.08,.85,.16,1.73,.25,2.59-1.33,.35-1.63,1.26-3.31,1.24-.18-.26-.58-1.77-.53-2,.05-.3,.2-.7,.06-1.01-.11-.18-.32-.15-.42-.29-.11-.51-.22-1.03-.34-1.52-.3-.53-.85-.7-1.07-1.37h-.06c-.1,.13-.2,.24-.29,.35,.16,.46,.31,.91,.46,1.37-.09,.33-.19,.67-.28,.99,.09,.5,.19,1.03,.28,1.53,.15,.94-.19,1.86,.08,2.87-.49,.63-1.17,.63-1.19,1.79,.25,.1,.55-.02,.83,.04,.25,.26,.5,.53,.76,.77,.55-.07,.74-.34,1.18-.47,1.36-.36,2.75-.75,3.94-1.23h.06c.19,.79,.19,1.91,0,2.68-2.2,.95-4.38,1.87-6.6,2.78-.63,.27-1.92,.88-1.87,1.66,.03,.05,.05,.1,.08,.18,.42,.64,.99,1.57,1.29,2.28,.18,.05,.35,.09,.51,.13,.76-1.7,2.37-1.99,3.8-3,.76-.56,1.36-1.27,2.3-1.71,.78,.48,.92,4.84,.69,6.24-1.17,.65-1.94-.02-3.35-.05-.05,.02-.08,.02-.11,.05-.03,.05-.05,.12-.06,.2,.81,1.08,3.35,1.93,4.89,.8,.33-1.57-.13-3,.17-4.59,.16-.76,.33-1.68,.3-2.76,.31-.21,.53-.31,1.11-.3,.25-.43,.58-.8,.65-1.41-.48-.1-1.24,.07-1.94,.13"/>
      <path class="cls-1" d="M152.8,19.89c-.49-.56-1.29-.75-2.35-.72-.48,.17-.98,.35-1.47,.53-2.42,1.5-3.9,4.15-6.82,5.37-.32-.95-.61-2.21-.71-3.37h-.12c-.26,.67-.5,1.33-.76,2-.27,1.2-.52,2.38-.77,3.59-.3,.8-1.23,1.43-1.41,2.16-.2,.84,1.22,3.96,1.59,4.24,.21,.02,.43,.04,.65,.06,.87-.9,.58-2.65,.99-4.05,.48-1.61,3.45-4.44,5.12-4.82,1.2,1.15,.73,2.78,1.05,4.93,.31,1.95,1.07,8.85,.18,10.47-.29,.23-.55,.47-.82,.7,.16,1.08,1.29,1.9,2.41,1.41,.91-1.53,.35-4.27,.06-6.24-.03-1.73-.08-3.49-.1-5.23v-4.64c-.22-.66-1.49-1.32-2.02-1.75-.01-.07-.02-.11-.05-.18,1.65-1.72,5.45-1.57,5.35-4.46"/>
      <g>
        <rect class="cls-2" x="36.25" y="2.68" width="44.93" height="36.61"/>
        <path class="cls-1" d="M72.95,14.27c-.39,.08-.96-.17-1.12-.51-.11-.13-.07-.08-.12-.29,.08-.07,.15-.12,.24-.17,.57,.2,.72,.44,1,.91v.06Zm-4.91,1.86c.02-1.35,2.27-2.64,3.11-1.22-.59,.73-1.74,1.26-3.11,1.22m8.99-.8c1.4-1.95-4.34-3.57-6.33-3.22-2.24,.43-3.42,2.12-4.33,3.79-.25,.47-.49,.93-.75,1.4-.44,.3-1.54,.08-2.22,.08-.11-.16-.21-.33-.32-.47-.19-.63,1.37-2.73,1.74-3.27,1.33-1.9,2.71-3.85,4.6-5.23,1.2-.81,2.43-1.65,3.64-2.45,1.46-1.82-1.18-2.98-3.09-2.95-1.58,1.68-4.54,3.1-8,2.62-.13,.28-.41,.67-.26,1.1,.26,.62,2.45,2.16,3.61,1.96,.9-.21,1.82-.46,2.72-.68,.02,0,.05,.02,.06,.05,.02,.1,.04,.2,.06,.3-.86,1.07-1.49,2.4-2.35,3.48-1.09,1.4-2.57,2.57-3.53,4.08-.49,.77-.99,2.29-.5,3.38,.36,.8,2.12,.93,2.79,1.44-.49,2.21-3.77,7.61-.8,8.98,.38,0,.53-.02,.75-.16,.76-.52,.53-2.46,.74-3.51,.38-2.04,.58-6.77,2.17-7.52,.44-.07,.91-.18,1.36-.27,.68-.25,1.37-.5,2.29-.28,.14,.68,.41,1.62,.24,2.55-.06,.69-.11,1.36-.17,2.03,.09,2.96,.2,5.89,.3,8.86,0,1.41,.23,4.73-.37,5.52-.55,.73-2.33,.57-3.47,.69v.08c.3,.5,1.6,1.73,2.55,1.32,2.08,1.75,3.58,.52,4.08-1.73,.39-1.78-.71-4.37-.37-5.94,.25-1.19-.03-4.14-.31-5.56v-9.12c.87-.62,2.38-.96,3.48-1.35"/>
        <path class="cls-1" d="M43.14,29.18c3.01-6.39,6.23-13.04,10.03-18.72,1.24-1.89,3.69-5.2,6.32-5.6,.02-.18,.05-.37,.07-.58-.41-.29-.91-.67-1.55-.71-.74,.51-1.86,1.89-2.84,1.34-1.27,.86-4.81,2.34-6.83,1.46h-.05c0,.46,.17,.66,.42,.88,.91,.85,5.22-.2,5.58-1.16,.19,.02,.64,.25,1.12,.29v.06c-1.35,1.67-2.7,3.33-4.02,5.01-3.05,4.12-5.66,8.76-7.89,13.55-1.03,2.27-2.55,3.82-3.04,6.71-.17,1.07,.25,1.86,.37,2.67,.28-.02,.54-.02,.81-.05,.6-.56-.04-1.92,.26-2.82,.4-.77,.82-1.52,1.24-2.32"/>
        <path class="cls-1" d="M58.31,18.01c-.47-.15-1.14-.2-1.85-.18-2.13,.89-5.61,2.11-6.13,4.31-.09,.03-.16,.04-.25,.06-.93-.43-1.07-1.69-1.36-2.68-.04-.03-.08-.03-.12-.05-.57,1.32-.72,3.06-.3,4.53,.47,.29,.55,.19,1.11,.07,.52,.51,.67,1.51,1.6,1.68h.08c.28-.49,.24-1.38,.48-1.93,.54-1.17,2.15-2.72,3.61-3.03,.1,.09,.2,.17,.31,.25,.45,1.62-.21,1.37-.63,2.26-.61,1.31-.6,1.39-2.61,1.33-.29,.29-.5,.47-.62,.94,.19,.43,.37,.89,.56,1.33,1.94,.73,1.69-.12,3.23-.49,1.03-.3,1.69,.35,2.22,.49,1.38,.44,2.61-.58,2.59-1.56-.54-.5-1.73-.58-2.03-1.28-.16-1.25,4.7-4.7,.11-6.06"/>
      </g>
    </g>
  </g>
</svg>